<svg xmlns="http://www.w3.org/2000/svg" width="14" height="14" viewBox="0 0 14 14">
  <g id="Close-Icon-Mobile" transform="translate(-13 -13)">
    <path id="times-solid" d="M9.654,87l3.98-3.98a1.251,1.251,0,0,0,0-1.769l-.885-.885a1.251,1.251,0,0,0-1.769,0L7,84.346l-3.98-3.98a1.251,1.251,0,0,0-1.769,0l-.885.885a1.251,1.251,0,0,0,0,1.769L4.346,87,.366,90.98a1.251,1.251,0,0,0,0,1.769l.885.885a1.251,1.251,0,0,0,1.769,0L7,89.654l3.98,3.98a1.251,1.251,0,0,0,1.769,0l.885-.885a1.251,1.251,0,0,0,0-1.769Z" transform="translate(13 -67)" fill="#007681"/>
  </g>
</svg>