<svg xmlns="http://www.w3.org/2000/svg" width="16" height="16" viewBox="0 0 16 16">
  <path id="earth-americas-solid" d="M16,8A8,8,0,1,1,8,0,8,8,0,0,1,16,8ZM1.8,6l.292.541a2,2,0,0,0,1.188.931l1.781.516A1.242,1.242,0,0,1,6,9.194v1.247a.833.833,0,0,0,.5.781.981.981,0,0,1,.5.837v1.219a.731.731,0,0,0,.934.7,1.512,1.512,0,0,0,1.022-1.053l.087-.35a2.009,2.009,0,0,1,.947-1.253l.253-.144A1.494,1.494,0,0,0,11,9.878V9.622a1.5,1.5,0,0,0-.441-1.062l-.119-.119a1.536,1.536,0,0,0-1.062-.469H8a1.959,1.959,0,0,1-.966-.234L5.959,7.119a.613.613,0,0,1-.284-.347A.636.636,0,0,1,5.991,6l.188-.091a.8.8,0,0,1,.638-.047l.753.241a.6.6,0,0,0,.647-.95L7.791,4.65A1,1,0,0,1,7.8,3.359l.491-.574A1,1,0,0,0,8.4,1.638l-.075-.13C8.191,1.5,8.109,1.5,8,1.5A6.513,6.513,0,0,0,1.8,6ZM13.675,4.828l-.8.322A1,1,0,0,0,12.3,6.394l.528,1.584a1.008,1.008,0,0,0,.706.656l.913.225a6.527,6.527,0,0,0-.769-4.031Z" fill="#007681"/>
</svg>
