<?xml version="1.0" encoding="utf-8"?>
<!-- Generator: Adobe Illustrator 26.1.0, SVG Export Plug-In . SVG Version: 6.00 Build 0)  -->
<svg version="1.1" id="img_logo_hs-full-with-tagline"
	 xmlns="http://www.w3.org/2000/svg" xmlns:xlink="http://www.w3.org/1999/xlink" x="0px" y="0px" viewBox="0 0 261 106.1"
	 style="enable-background:new 0 0 261 106.1;" xml:space="preserve">
<style type="text/css">
	.st0{fill:#FFFFFF;}
	.st1{fill:none;}
</style>
<g id="Hot_Spring_logo-4c-black_text" transform="translate(23.929 14.695)">
	<path id="Path_3356" class="st0" d="M233.4,28.6c-2,0-3.6-1.6-3.6-3.6c0-2,1.6-3.6,3.6-3.6c2,0,3.6,1.6,3.6,3.6l0,0
		c0.1,2-1.5,3.6-3.4,3.6C233.6,28.6,233.5,28.6,233.4,28.6z M233.4,21.6c-1.8,0-3.2,1.4-3.2,3.2s1.4,3.2,3.2,3.2s3.2-1.4,3.2-3.2
		c0-1.8-1.4-3.2-3.1-3.2C233.5,21.6,233.4,21.6,233.4,21.6z M232.9,26.3c0,0.3,0.3,0.3,0.6,0.3v0.1h-1.7v-0.1c0.3,0,0.6-0.1,0.6-0.3
		v-3.1c0-0.3,0-0.3-0.4-0.3v-0.1h1.8c0.3,0,0.6,0,0.8,0.1c0.2,0,0.5,0.2,0.6,0.4c0.2,0.4,0.1,1-0.3,1.3c-0.2,0.2-0.4,0.3-0.7,0.3
		l1.3,1.7c0.1,0.1,0.3,0.2,0.4,0.1v0.1h-1l-1.4-2h-0.3v1.4L232.9,26.3z M232.9,24.6c0.3,0,0.6,0,0.8-0.1c0.4-0.1,0.7-0.4,0.7-0.8
		c0-0.3-0.2-0.7-0.6-0.7h-0.6c-0.1,0-0.3,0-0.3,0.3v1.4L232.9,24.6z"/>
	<path id="Path_3357" class="st0" d="M-15.9,61.2c-5.2-6.6-8-14.9-8-23.3C-23.9,17-6.9,0,14,0c9.9,0,19.4,3.9,26.5,10.8l-5.8,5.8
		C-1-11.2-32.6,27.8-20.1,53.5c-10-34.3,29.3-53.2,50-32l-5.6,5.6C-0.8,5.9-28.7,33.3-18.9,55c-5.6-30.7,27.2-36.2,38.5-23.3
		c-2,2.4-5.6,5.9-5.6,5.9C-3,22.6-26,40.3-15.9,61.2L-15.9,61.2z"/>
	<path id="Path_3358" class="st0" d="M43.9,14.2c5.2,6.6,8,14.9,8,23.3c0,20.9-17,37.9-37.9,37.9c-9.9,0-19.4-3.9-26.5-10.8l5.8-5.8
		C29,86.6,60.6,47.6,48.1,21.9c10,34.3-29.3,53.2-50,32l5.6-5.6c25,21.2,52.9-6.2,43.1-27.9c5.6,30.7-27.2,36.2-38.5,23.3
		c2-2.4,5.6-5.9,5.6-5.9C31,52.6,54,35.1,43.9,14.2L43.9,14.2z"/>
	<path id="Path_3359" class="st0" d="M78.4,32.4V18.7h6.9v34.3h-6.9V37.6h-7.7v15.3h-6.9V18.7h6.9v13.8H78.4z"/>
	<path id="Path_3360" class="st0" d="M87,39.9c0-7,1-13.1,10-13.1s10,6,10,13.1c0,8.1-1.1,13.8-10,13.8C88.2,53.6,87,47.9,87,39.9z
		 M100.2,39.5c0-5.3-0.3-8.1-3.2-8.1s-3.2,2.7-3.2,8.1c0,7.9,0.7,9.5,3.2,9.5C99.6,49,100.2,47.3,100.2,39.5z"/>
	<path id="Path_3361" class="st0" d="M108.7,22.9l6.9-3.2V27h3.5v4.5h-3.5v13.9c0,2,0,3.2,2.2,3.2c0.4,0,0.9,0,1.3-0.1v4.5
		c-1.2,0.2-2.3,0.3-3.5,0.3c-5.9,0-6.7-4.2-6.7-5.8V22.9H108.7z"/>
	<path id="Path_3362" class="st0" d="M129.4,53.6c-6.9,0-10.4-4.8-9.7-11.2h6.5c0,3.2,0.4,6,4.2,6c2.2,0,4.6-1.5,4.6-3.9
		c0-8.6-15-4.1-15-16.7c0-5.3,2.5-9.7,11-9.7c6.6,0,10.2,2.4,10.1,9.7h-6.6c0-2.5-1.1-4.9-3.8-4.9c-2.1,0-3.8,1.6-3.8,3.7
		c0,0.1,0,0.2,0,0.3c0,8,15.3,3.2,15.3,16.7C142,52.5,134.6,53.6,129.4,53.6L129.4,53.6z"/>
	<path id="Path_3363" class="st0" d="M149.9,59.8h-6.3v-33h6v2.7h0.1c1.1-2.4,2.9-3.1,5.3-3.1c7.3,0,8,7.7,8,12.6
		s-0.3,14.5-7.9,14.5c-2.9,0-4.1-0.7-5.3-2.8L149.9,59.8L149.9,59.8z M156.6,39.7c0-4.8-0.7-8.1-3.5-8.1c-2.7,0-3.4,3.4-3.4,8.1
		c0,6,1.3,8.6,3.4,8.6C155.5,48.3,156.6,45.8,156.6,39.7z"/>
	<path id="Path_3364" class="st0" d="M170.8,27.1v3.4h0.1c1.1-2.7,4-4.3,6.9-3.8v6c-6-0.4-6.7,1.8-6.7,6.3v14h-6.9v-26H170.8z"/>
	<path id="Path_3365" class="st0" d="M186,53.1h-6.3v-26h6.3V53.1L186,53.1z M186,19.5v5.6h-6.3v-5.6L186,19.5z"/>
	<path id="Path_3366" class="st0" d="M194.7,29.9L194.7,29.9c1.1-2.5,4.1-3.5,6.7-3.5c3.4,0,6.1,2.7,6.2,6v20.8h-6.5V35.4
		c0-2.2-0.8-3.8-2.9-3.8c-2.2,0-3.4,1.5-3.4,3.8v17.8h-6.7v-26h6.6V29.9L194.7,29.9z"/>
	<path id="Path_3367" class="st0" d="M222.5,49.6c-1.5,1.6-3.6,2.6-5.8,2.7c-7.4,0-7.7-8.1-7.7-13.6c0-5.3,0.8-12.2,8.1-12.2
		c2.3,0,4.5,1.3,5.3,3.5h0.1v-2.8h6v25c0,1.7-1.3,8.3-10,8.3c-3.6,0-8.8-1-9-6.7h6.2c0.1,1.4,1.2,2.6,2.7,2.5c2,0,3.6-1.5,3.6-3.5
		c0,0,0,0,0,0L222.5,49.6L222.5,49.6z M219.1,47.3c2.2,0,3.2-2.4,3.2-7.4c0-5.3-1-8.4-3.4-8.4s-3.2,1.8-3.2,9.1
		C215.7,42.8,216,47.3,219.1,47.3z"/>
	<path id="Path_3368" class="st0" d="M99.5,68.2h5.2l-0.1,1.1h-4.2l-0.7,3.2h3.8l-0.1,1.1h-3.8l-0.8,3.6h4.2l-0.3,1.1h-5.3
		L99.5,68.2z"/>
	<path id="Path_3369" class="st0" d="M106.9,75.4l0.1,1.4l0,0l0.7-1.4l2.4-4.2h1.3l-4.5,7.4h-0.6l-1.4-7.4h1.3L106.9,75.4z"/>
	<path id="Path_3370" class="st0" d="M116,77.8c-0.4,0.3-0.8,0.6-1.3,0.7c-0.5,0.2-0.9,0.3-1.4,0.3c-0.7,0-1.3-0.2-1.8-0.7
		c-0.4-0.5-0.6-1.2-0.6-1.8c0-0.7,0.1-1.4,0.3-2.1c0.2-0.5,0.5-1.1,0.8-1.5c0.3-0.4,0.8-0.7,1.3-1c0.4-0.2,0.9-0.3,1.4-0.3
		c0.3,0,0.7,0,1,0.1c0.3,0.1,0.4,0.3,0.7,0.4c0.2,0.2,0.3,0.4,0.4,0.6c0.1,0.2,0.2,0.5,0.1,0.7c0,0.7-0.4,1.4-1,1.7
		c-0.9,0.4-1.9,0.6-2.9,0.6h-0.8c0,0.2,0,0.4-0.1,0.6v0.4c0,0.5,0.1,0.9,0.4,1.3c0.3,0.3,0.7,0.6,1.1,0.6c0.4,0.1,0.8,0,1.1-0.3
		c0.3-0.1,0.6-0.3,0.8-0.4L116,77.8L116,77.8z M114.8,71.9c-0.5,0-1,0.2-1.4,0.6c-0.4,0.5-0.7,1.1-0.8,1.7h1.1c0.4,0,0.8,0,1.1-0.1
		l0.8-0.4c0.3-0.1,0.3-0.4,0.3-0.7v-0.3c0-0.1-0.1-0.1-0.1-0.3c-0.1-0.1-0.1-0.1-0.3-0.1C115.3,72,115.1,71.8,114.8,71.9L114.8,71.9
		z"/>
	<path id="Path_3371" class="st0" d="M122.5,72.2h-0.6c-0.5,0-0.9,0.1-1.3,0.4c-0.4,0.3-0.7,0.7-0.8,1.1l-1,4.8h-1.1l1.5-7.3h0.7
		v1.3l0,0c0.1-0.1,0.3-0.4,0.4-0.6l0.4-0.4c0.1-0.2,0.3-0.3,0.6-0.3c0.2-0.1,0.5-0.2,0.7-0.1c0.2,0,0.5,0,0.7,0.1L122.5,72.2
		L122.5,72.2z"/>
	<path id="Path_3372" class="st0" d="M124.7,75.8l0.1,1.4h0.1l0.6-1.4L128,71h1.1l-3.5,6.5c-0.3,0.4-0.5,0.9-0.7,1.4
		c-0.3,0.4-0.5,0.8-0.7,1.3c-0.2,0.3-0.5,0.6-0.8,0.8c-0.2,0.2-0.5,0.3-0.8,0.3h-0.4c-0.1,0-0.3,0-0.3-0.1l0.3-1h0.3
		c0.3,0,0.6-0.2,0.8-0.4c0.4-0.5,0.7-1,1-1.5l-1.3-7.3h1.1L124.7,75.8L124.7,75.8z"/>
	<path id="Path_3373" class="st0" d="M137.9,76c-0.1,0.4-0.2,0.7-0.1,1.1v1.5h-0.7l-0.1-1.3l0,0c-0.2,0.2-0.3,0.4-0.4,0.6
		c-0.1,0.1-0.4,0.3-0.6,0.4c-0.3,0.1-0.4,0.3-0.7,0.3c-0.2,0.1-0.5,0.2-0.7,0.1c-0.5,0.1-1-0.2-1.3-0.6c-0.3-0.6-0.5-1.2-0.4-1.8
		c0-0.6,0.1-1.2,0.3-1.8c0.2-0.6,0.4-1.1,0.7-1.7c0.3-0.5,0.7-1,1.3-1.3c0.5-0.3,1.1-0.5,1.7-0.4h0.8c0.1,0,0.3,0,0.3,0.1
		c0.1,0,0.1,0.1,0.3,0.1l0.7-3.1h1.1L137.9,76L137.9,76z M134.7,77.6c0.2,0,0.4,0,0.6-0.1c0.2-0.1,0.4-0.2,0.6-0.4
		c0.1-0.1,0.4-0.3,0.6-0.6c0.1-0.1,0.3-0.4,0.4-0.6l0.8-3.8c-0.1-0.1-0.4-0.1-0.6-0.3h-0.8c-0.4,0-0.8,0.2-1.1,0.4
		c-0.3,0.3-0.6,0.6-0.8,1c-0.3,0.4-0.5,0.9-0.6,1.4c-0.1,0.5-0.2,1-0.1,1.5c0,0.3,0.1,0.7,0.3,1C134.1,77.5,134.4,77.6,134.7,77.6
		L134.7,77.6z"/>
	<path id="Path_3374" class="st0" d="M145.4,75.5c-0.1,0.4-0.2,0.7-0.1,1.1v1.8h-0.8l-0.1-1.3l0,0c-0.2,0.2-0.3,0.4-0.4,0.6
		c-0.1,0.1-0.4,0.3-0.6,0.4c-0.2,0.2-0.4,0.3-0.7,0.3c-0.2,0.1-0.5,0.2-0.7,0.1c-1.1,0-1.7-0.7-1.7-2.2c0-0.7,0.1-1.3,0.3-2
		c0.1-0.6,0.4-1.2,0.7-1.7c0.3-0.5,0.7-1,1.3-1.3c0.6-0.4,1.3-0.5,2-0.6c0.3,0,0.7,0,1,0.1c0.4,0,0.8,0.1,1.1,0.3L145.4,75.5
		L145.4,75.5z M142,77.6c0.2,0,0.5,0,0.7-0.1c0.2-0.1,0.4-0.2,0.6-0.4c0.1-0.1,0.4-0.3,0.6-0.6c0.1-0.2,0.2-0.4,0.3-0.6L145,72
		c-0.4-0.1-0.7-0.2-1.1-0.1c-0.4,0-0.8,0.1-1.1,0.4c-0.3,0.3-0.6,0.6-0.8,1c-0.3,0.4-0.5,0.9-0.6,1.4c-0.1,0.5-0.2,1-0.1,1.5
		c0,0.3,0.1,0.7,0.3,1C141.6,77.5,141.7,77.6,142,77.6L142,77.6z"/>
	<path id="Path_3375" class="st0" d="M149.3,75.8l0.1,1.4h0.1l0.6-1.4l2.4-4.8h1.1l-3.5,6.5c-0.3,0.4-0.5,0.9-0.7,1.4
		c-0.3,0.4-0.5,0.8-0.7,1.3c-0.2,0.3-0.5,0.6-0.8,0.8c-0.2,0.2-0.5,0.3-0.8,0.3h-0.4c-0.1,0-0.3,0-0.3-0.1l0.3-1h0.4
		c0.3,0,0.6-0.2,0.8-0.4c0.4-0.5,0.7-1,1-1.5l-1.3-7.3h1.1L149.3,75.8L149.3,75.8z"/>
	<path id="Path_3376" class="st0" d="M160.8,78.5l0.8-4.1c0.1-0.3,0.2-0.6,0.1-0.8v-0.7c0-0.3,0-0.4-0.1-0.6
		c-0.1-0.2-0.3-0.3-0.6-0.3c-0.2,0-0.5,0-0.7,0.1c-0.3,0.1-0.4,0.3-0.7,0.4l-0.6,0.6c-0.1,0.2-0.2,0.4-0.4,0.6l-1,4.6h-1.1l1.5-7.3
		h0.8l-0.1,1.3l0,0c0.2-0.2,0.4-0.3,0.6-0.4c0.1-0.1,0.4-0.3,0.6-0.4c0.3-0.1,0.4-0.3,0.7-0.3c0.3-0.1,0.6-0.2,0.8-0.1
		c0.3,0,0.7,0.1,0.8,0.4c0.2,0.3,0.3,0.7,0.3,1.1c0.1-0.1,0.3-0.4,0.6-0.6c0.2-0.2,0.4-0.4,0.7-0.6c0.3-0.1,0.4-0.3,0.7-0.4
		c0.2-0.1,0.5-0.1,0.7-0.1c0.3,0,0.7,0.1,1,0.3c0.3,0.3,0.5,0.7,0.4,1.1c0,0.6-0.1,1.1-0.3,1.7l-1,4.4h-1.1l1-4.4
		c0-0.2,0.1-0.5,0.1-0.7v-0.6c0-0.3,0-0.4-0.1-0.6S165,72,164.8,72c-0.2,0-0.5,0-0.7,0.1c-0.3,0.1-0.4,0.3-0.7,0.4s-0.4,0.4-0.6,0.6
		c-0.1,0.2-0.2,0.4-0.4,0.6l-1,4.6h-0.6L160.8,78.5z"/>
	<path id="Path_3377" class="st0" d="M173.6,75.5c-0.1,0.4-0.2,0.7-0.1,1.1v1.8h-0.8l-0.1-1.3l0,0c-0.2,0.2-0.3,0.4-0.4,0.6
		c-0.1,0.1-0.4,0.3-0.6,0.4c-0.2,0.2-0.4,0.3-0.7,0.3c-0.2,0.1-0.5,0.2-0.7,0.1c-1.1,0-1.7-0.7-1.7-2.2c0-0.7,0.1-1.3,0.3-2
		c0.1-0.6,0.4-1.2,0.7-1.7c0.3-0.6,0.7-1,1.3-1.3c0.6-0.4,1.3-0.5,2-0.6c0.3,0,0.7,0,1,0.1c0.4,0,0.8,0.1,1.1,0.3L173.6,75.5
		L173.6,75.5z M170.2,77.6c0.2,0,0.5,0,0.7-0.1c0.2-0.1,0.4-0.2,0.6-0.4c0.1-0.1,0.4-0.3,0.6-0.6c0.1-0.2,0.2-0.4,0.3-0.6l0.8-3.9
		c-0.4-0.1-0.7-0.2-1.1-0.1c-0.4,0-0.8,0.1-1.1,0.4c-0.3,0.3-0.6,0.6-0.8,1c-0.3,0.4-0.5,0.9-0.6,1.4c-0.1,0.5-0.2,1-0.1,1.5
		c0,0.3,0.1,0.7,0.3,1C169.7,77.5,170,77.6,170.2,77.6L170.2,77.6z"/>
	<path id="Path_3378" class="st0" d="M180.8,76c-0.1,0.4-0.2,0.7-0.1,1.1v1.5h-0.7l-0.3-1.4l0,0c-0.2,0.2-0.3,0.3-0.4,0.6
		c-0.1,0.1-0.4,0.3-0.6,0.4c-0.3,0.1-0.4,0.3-0.7,0.3c-0.2,0.1-0.5,0.2-0.7,0.1c-0.5,0.1-1-0.2-1.3-0.6c-0.3-0.6-0.5-1.2-0.4-1.8
		c0-0.6,0.1-1.2,0.3-1.8c0.2-0.6,0.4-1.1,0.7-1.7c0.3-0.5,0.7-1,1.3-1.3c0.5-0.3,1.1-0.5,1.7-0.4h0.8c0.1,0,0.3,0,0.3,0.1
		c0.1,0,0.1,0.1,0.3,0.1l0.7-3.1h1.1L180.8,76L180.8,76z M177.5,77.6c0.2,0,0.4,0,0.6-0.1c0.2-0.1,0.4-0.2,0.6-0.4
		c0.1-0.1,0.4-0.3,0.6-0.6c0.1-0.1,0.3-0.4,0.4-0.6l0.8-3.8c-0.1-0.1-0.4-0.1-0.6-0.3h-0.8c-0.4,0-0.8,0.2-1.1,0.4
		c-0.3,0.3-0.6,0.6-0.8,1c-0.3,0.4-0.5,0.9-0.6,1.4c-0.1,0.5-0.2,1-0.1,1.5c0,0.3,0.1,0.7,0.3,1C176.9,77.5,177.2,77.6,177.5,77.6
		L177.5,77.6z"/>
	<path id="Path_3379" class="st0" d="M187.8,77.8c-0.4,0.3-0.8,0.6-1.3,0.7c-0.5,0.2-0.9,0.3-1.4,0.3c-0.7,0-1.3-0.2-1.8-0.7
		c-0.4-0.5-0.6-1.2-0.6-1.8c0-0.7,0.1-1.4,0.3-2.1c0.2-0.5,0.5-1.1,0.8-1.5c0.3-0.4,0.8-0.7,1.3-1c0.4-0.2,0.9-0.3,1.4-0.3
		c0.3,0,0.7,0,1,0.1c0.3,0.1,0.4,0.3,0.7,0.4c0.2,0.2,0.3,0.4,0.4,0.6c0.1,0.2,0.2,0.5,0.1,0.7c0,0.7-0.4,1.4-1,1.7
		c-0.9,0.4-1.9,0.6-2.9,0.6H184c0,0.2,0,0.4-0.1,0.6v0.4c0,0.5,0.1,0.9,0.4,1.3c0.3,0.3,0.7,0.6,1.1,0.6c0.4,0.1,0.8,0,1.1-0.3
		c0.3-0.1,0.6-0.3,0.8-0.4L187.8,77.8L187.8,77.8z M186.5,71.9c-0.5,0-1,0.2-1.4,0.6c-0.4,0.5-0.7,1.1-0.8,1.7h1.1
		c0.4,0,0.8,0,1.1-0.1l0.8-0.4c0.3-0.1,0.3-0.4,0.3-0.7v-0.3c0-0.1-0.1-0.1-0.1-0.3c-0.1-0.1-0.1-0.1-0.3-0.1
		C187,72,186.8,71.9,186.5,71.9L186.5,71.9z"/>
	<path id="Path_3380" class="st0" d="M195.5,68.2h1.1l-0.8,4.2l0,0c0.2-0.2,0.3-0.4,0.4-0.6c0.1-0.1,0.4-0.3,0.6-0.4
		c0.3-0.1,0.4-0.3,0.7-0.3c0.3-0.1,0.6-0.2,0.8-0.1c0.5-0.1,1,0.2,1.3,0.6c0.3,0.5,0.5,1,0.4,1.5c0,0.8-0.1,1.6-0.4,2.4
		c-0.2,0.6-0.5,1.2-1,1.7c-0.4,0.4-0.9,0.8-1.4,1.1c-0.5,0.3-1,0.4-1.5,0.4c-0.5,0-0.9,0-1.4-0.1c-0.3-0.1-0.6-0.2-0.8-0.4
		L195.5,68.2L195.5,68.2z M197.9,71.9c-0.2,0-0.5,0-0.7,0.1c-0.3,0.1-0.5,0.3-0.7,0.4c-0.3,0.2-0.5,0.4-0.6,0.7
		c-0.1,0.3-0.3,0.4-0.4,0.7l-0.7,3.4c0.4,0.2,0.8,0.3,1.3,0.3c0.3,0,0.7-0.1,1-0.3c0.4-0.2,0.7-0.5,1-0.8c0.3-0.4,0.6-0.9,0.7-1.4
		c0.2-0.6,0.3-1.2,0.3-1.8c0-0.4-0.1-0.8-0.3-1.1C198.3,72,198.2,71.9,197.9,71.9L197.9,71.9z"/>
	<path id="Path_3381" class="st0" d="M206,77.8c-0.4,0.3-0.8,0.6-1.3,0.7c-0.5,0.2-0.9,0.3-1.4,0.3c-0.7,0-1.3-0.2-1.8-0.7
		c-0.4-0.5-0.6-1.2-0.6-1.8c0-0.7,0.1-1.4,0.3-2.1c0.2-0.5,0.5-1.1,0.8-1.5c0.3-0.4,0.8-0.7,1.3-1c0.4-0.2,0.9-0.3,1.4-0.3
		c0.3,0,0.7,0,1,0.1c0.3,0.1,0.4,0.3,0.7,0.4c0.2,0.2,0.3,0.4,0.4,0.6c0.1,0.2,0.2,0.5,0.1,0.7c0,0.7-0.4,1.4-1,1.7
		c-0.9,0.4-1.9,0.6-2.9,0.6h-0.8c0,0.2,0,0.4-0.1,0.6v0.4c0,0.5,0.1,0.9,0.4,1.3c0.3,0.3,0.7,0.6,1.1,0.6c0.4,0.1,0.8,0,1.1-0.3
		c0.3-0.1,0.6-0.2,0.8-0.4L206,77.8L206,77.8z M204.8,71.9c-0.5,0-1,0.2-1.4,0.6c-0.4,0.5-0.7,1.1-0.8,1.7h1.1c0.4,0,0.8,0,1.1-0.1
		l0.8-0.4c0.3-0.1,0.3-0.4,0.3-0.7v-0.3c0-0.1-0.1-0.1-0.1-0.3c-0.1-0.1-0.1-0.1-0.3-0.1C205.3,72,205,71.8,204.8,71.9L204.8,71.9z"
		/>
	<path id="Path_3382" class="st0" d="M208.1,71.2h1.1l0.3-1.4l1.1-0.3l-0.4,1.8h2l-0.3,1h-2l-1,4.4v0.6c0,0.3,0,0.4,0.1,0.4
		c0.1,0.1,0.3,0.2,0.4,0.1c0.2,0,0.5,0,0.7-0.1c0.2,0,0.4-0.1,0.6-0.3v0.8c-0.2,0.2-0.5,0.3-0.8,0.3c-0.3,0.1-0.6,0.2-1,0.1
		c-0.6,0.1-1.2-0.3-1.3-0.9c0-0.1,0-0.2,0-0.3c0-0.2,0-0.4,0.1-0.6l1-4.8h-1.1L208.1,71.2L208.1,71.2z"/>
	<path id="Path_3383" class="st0" d="M212.8,71.2h1.1l0.3-1.4l1.1-0.3l-0.4,1.8h2l-0.3,1h-1.8l-1,4.4v0.6c0,0.3,0,0.4,0.1,0.4
		c0.1,0.1,0.3,0.2,0.4,0.1c0.2,0,0.5,0,0.7-0.1c0.2,0,0.4-0.1,0.6-0.3v0.8c-0.2,0.2-0.5,0.3-0.8,0.3c-0.3,0.1-0.6,0.2-1,0.1
		c-0.6,0.1-1.2-0.3-1.3-0.9c0-0.1,0-0.2,0-0.3c0-0.2,0-0.4,0.1-0.6l1-4.8h-1.1L212.8,71.2L212.8,71.2z"/>
	<path id="Path_3384" class="st0" d="M222,77.8c-0.4,0.3-0.8,0.6-1.3,0.7c-0.5,0.2-0.9,0.3-1.4,0.3c-0.7,0-1.3-0.2-1.8-0.7
		c-0.4-0.5-0.6-1.2-0.6-1.8c0-0.7,0.1-1.4,0.3-2.1c0.2-0.5,0.5-1.1,0.8-1.5c0.3-0.4,0.8-0.7,1.3-1c0.4-0.2,0.9-0.3,1.4-0.3
		c0.3,0,0.7,0,1,0.1c0.3,0.1,0.4,0.3,0.7,0.4c0.2,0.2,0.3,0.4,0.4,0.6c0.1,0.2,0.2,0.5,0.1,0.7c0,0.7-0.4,1.4-1,1.7
		c-0.9,0.4-1.9,0.6-2.9,0.6h-0.8c0,0.2,0,0.4-0.1,0.6v0.4c0,0.5,0.1,0.9,0.4,1.3c0.3,0.3,0.7,0.6,1.1,0.6c0.4,0.1,0.8,0,1.1-0.3
		c0.3-0.1,0.6-0.2,0.8-0.4L222,77.8L222,77.8z M220.8,71.9c-0.5,0-1,0.2-1.4,0.6c-0.4,0.5-0.7,1.1-0.8,1.7h1.1c0.4,0,0.8,0,1.1-0.1
		l0.8-0.4c0.3-0.1,0.3-0.4,0.3-0.7v-0.3c0-0.1-0.1-0.1-0.1-0.3c-0.1-0.1-0.1-0.1-0.3-0.1C221.3,72,221,71.9,220.8,71.9L220.8,71.9z"
		/>
	<path id="Path_3385" class="st0" d="M228.4,72.2h-0.6c-0.5,0-0.9,0.1-1.3,0.4c-0.4,0.3-0.7,0.7-0.8,1.1l-1,4.8h-1.1l1.5-7.3h0.7
		v1.3l0,0c0.1-0.1,0.3-0.4,0.4-0.6l0.4-0.4c0.1-0.2,0.3-0.3,0.6-0.3c0.2-0.1,0.5-0.2,0.7-0.1c0.2,0,0.5,0,0.7,0.1L228.4,72.2
		L228.4,72.2z"/>
	<path id="Path_3386" class="st0" d="M229.1,69.4c0-0.2,0-0.5,0.1-0.7c0.1-0.1,0.1-0.4,0.4-0.6c0.1-0.2,0.3-0.3,0.6-0.3
		c0.2-0.1,0.5-0.2,0.7-0.1c0.2,0,0.5,0,0.7,0.1c0.1,0.1,0.4,0.1,0.6,0.3c0.2,0.2,0.3,0.4,0.4,0.6c0.2,0.4,0.2,1,0,1.4
		c-0.1,0.1-0.1,0.4-0.4,0.6c-0.1,0.2-0.3,0.3-0.6,0.3c-0.2,0.1-0.5,0.2-0.7,0.1c-0.2,0-0.5,0-0.7-0.1c-0.1-0.1-0.4-0.1-0.6-0.3
		c-0.2-0.2-0.3-0.4-0.4-0.6C229.1,69.8,229,69.6,229.1,69.4L229.1,69.4z M229.5,69.4c0,0.3,0,0.4,0.1,0.6c0,0.1,0.1,0.3,0.3,0.4
		s0.3,0.1,0.4,0.3c0.1,0,0.3,0.1,0.4,0.1c0.2,0,0.4,0,0.6-0.1c0.1,0,0.3-0.1,0.4-0.3s0.1-0.3,0.3-0.4c0-0.1,0.1-0.3,0.1-0.6
		s0-0.4-0.1-0.6c0-0.1-0.1-0.3-0.3-0.4s-0.3-0.1-0.4-0.3c-0.1,0-0.3-0.1-0.6-0.1c-0.2,0-0.4,0-0.6,0.1c-0.1,0-0.3,0.1-0.4,0.3
		s-0.1,0.3-0.3,0.4L229.5,69.4L229.5,69.4z M230,68.5h0.6c0.2,0,0.3,0,0.4,0.1c0.1,0.1,0.1,0.1,0.1,0.4c0,0.1,0,0.3-0.1,0.3
		c-0.1,0.1-0.1,0.1-0.3,0.1l0.1,0.1l0.4,0.7h-0.4l-0.4-0.7l-0.3-0.1v0.7h-0.3v-1.7L230,68.5z M230.6,68.8h-0.3v0.4h0.6l0.1-0.1
		C231,68.8,230.9,68.8,230.6,68.8L230.6,68.8z"/>
</g>
<rect id="Rectangle_1074" x="-23.9" class="st1" width="275" height="106.1"/>
</svg>
