<svg id="img_logo_hs-full-with-tagline" data-name="img/logo/hs-full-with-tagline" xmlns="http://www.w3.org/2000/svg" width="145.165" height="56" viewBox="0 0 145.165 56">
  <g id="Hot_Spring_logo-4c-black_text" data-name="Hot Spring logo-4c-black text" transform="translate(10.929 7.757)">
    <path id="Path_3356" data-name="Path 3356" d="M485.5,295.792a1.8,1.8,0,1,1,1.8-1.8,1.742,1.742,0,0,1-1.8,1.8Zm0-3.454a1.589,1.589,0,1,0,1.589,1.589,1.563,1.563,0,0,0-1.589-1.589Zm-.276,2.28c0,.138.138.138.276.138v.069h-.829v-.069c.138,0,.276-.069.276-.138V293.1c0-.138,0-.138-.207-.138v-.069h.9a.876.876,0,0,1,.415.069.37.37,0,0,1,.276.207.5.5,0,0,1-.138.622.528.528,0,0,1-.345.138l.622.829a.254.254,0,0,0,.207.069v.069h-.484l-.691-.967h-.138v.691Zm0-.829a.876.876,0,0,0,.415-.069.438.438,0,0,0,.345-.414.312.312,0,0,0-.276-.345h-.276c-.069,0-.138,0-.138.138v.691Z" transform="translate(-358.864 -281.699)"/>
    <path id="Path_3357" data-name="Path 3357" d="M306.938,307.121A18.434,18.434,0,0,1,303,295.653a18.662,18.662,0,0,1,31.71-13.333l-2.832,2.832c-17.617-13.679-33.161,5.527-27.012,18.169-4.9-16.857,14.439-26.183,24.594-15.751l-2.763,2.763c-12.3-10.432-26.045,3.04-21.209,13.748-2.763-15.129,13.4-17.824,18.929-11.468-.967,1.174-2.763,2.9-2.763,2.9-8.359-7.392-19.689,1.313-14.715,11.606Z" transform="translate(-303 -277)" fill="#199eb2"/>
    <path id="Path_3358" data-name="Path 3358" d="M338.872,287.1a18.434,18.434,0,0,1,3.938,11.468A18.662,18.662,0,0,1,311.1,311.9l2.832-2.832c17.617,13.679,33.161-5.527,27.012-18.169,4.9,16.857-14.439,26.183-24.594,15.751l2.763-2.763c12.3,10.432,26.045-3.04,21.209-13.748,2.763,15.13-13.4,17.824-18.929,11.468.967-1.174,2.763-2.9,2.763-2.9,8.359,7.323,19.689-1.313,14.715-11.606Z" transform="translate(-305.504 -280.122)" fill="#004b87"/>
    <path id="Path_3359" data-name="Path 3359" d="M372.685,297.07V290.3h3.385v16.857h-3.385v-7.53h-3.8v7.53H365.5V290.3h3.385v6.77Z" transform="translate(-322.322 -281.112)"/>
    <path id="Path_3360" data-name="Path 3360" d="M382,302.525c0-3.454.484-6.425,4.9-6.425s4.9,2.971,4.9,6.425c0,4.007-.553,6.77-4.9,6.77-4.283,0-4.9-2.832-4.9-6.77Zm6.494-.207c0-2.625-.138-4.007-1.589-4.007s-1.589,1.313-1.589,4.007c0,3.869.345,4.7,1.589,4.7,1.313,0,1.589-.829,1.589-4.7Z" transform="translate(-327.423 -282.905)"/>
    <path id="Path_3361" data-name="Path 3361" d="M397.5,292.589,400.885,291v3.592h1.727V296.8h-1.727v6.839c0,.967,0,1.589,1.105,1.589a1.912,1.912,0,0,0,.622-.069v2.211a10.874,10.874,0,0,1-1.727.138c-2.9,0-3.316-2.073-3.316-2.832v-12.09Z" transform="translate(-332.215 -281.328)"/>
    <path id="Path_3362" data-name="Path 3362" d="M410.047,307.378c-3.385,0-5.112-2.349-4.767-5.527h3.178c0,1.589.207,2.971,2.073,2.971a2.151,2.151,0,0,0,2.28-1.934c0-4.214-7.392-2-7.392-8.221,0-2.625,1.244-4.767,5.389-4.767,3.247,0,5.043,1.174,4.974,4.767h-3.247c0-1.243-.553-2.418-1.865-2.418a1.853,1.853,0,0,0-1.865,2c0,3.938,7.53,1.589,7.53,8.221-.069,4.352-3.731,4.905-6.287,4.905Z" transform="translate(-334.607 -280.988)"/>
    <path id="Path_3363" data-name="Path 3363" d="M425.409,312.242H422.3V296.007h2.971v1.313h.069a2.558,2.558,0,0,1,2.625-1.52c3.592,0,3.938,3.8,3.938,6.218s-.138,7.116-3.869,7.116a2.488,2.488,0,0,1-2.625-1.382v4.491Zm3.316-9.879c0-2.349-.345-4.007-1.727-4.007-1.313,0-1.658,1.658-1.658,4.007,0,2.971.622,4.214,1.658,4.214,1.174,0,1.727-1.243,1.727-4.214Z" transform="translate(-339.882 -282.812)"/>
    <path id="Path_3364" data-name="Path 3364" d="M440.247,296.19v1.658h.069a3.12,3.12,0,0,1,3.385-1.865v2.971c-2.971-.207-3.316.9-3.316,3.109v6.908H437V296.19Z" transform="translate(-344.427 -282.856)"/>
    <path id="Path_3365" data-name="Path 3365" d="M451.109,307.411H448V294.631h3.109v12.781Zm0-16.511v2.763H448V290.9Z" transform="translate(-347.827 -281.297)"/>
    <path id="Path_3366" data-name="Path 3366" d="M457.247,297.527h0a3.476,3.476,0,0,1,3.316-1.727,3.007,3.007,0,0,1,3.04,2.971V309h-3.178v-8.774c0-1.105-.415-1.865-1.451-1.865-1.105,0-1.658.76-1.658,1.865V309H454V296.214h3.247v1.313Z" transform="translate(-349.682 -282.812)"/>
    <path id="Path_3367" data-name="Path 3367" d="M475.532,307.2a4.023,4.023,0,0,1-2.832,1.313c-3.661,0-3.8-4.007-3.8-6.7,0-2.625.414-6.01,4.007-6.01a2.77,2.77,0,0,1,2.625,1.727h.069v-1.382h2.971v12.3c0,.829-.622,4.076-4.905,4.076-1.8,0-4.352-.484-4.421-3.316h3.04a1.292,1.292,0,0,0,1.313,1.244,1.758,1.758,0,0,0,1.8-1.727l.138-1.52Zm-1.658-1.105c1.105,0,1.589-1.174,1.589-3.661,0-2.625-.484-4.145-1.658-4.145s-1.589.9-1.589,4.49c0,1.105.138,3.316,1.658,3.316Z" transform="translate(-354.289 -282.812)"/>
    <path id="Path_3368" data-name="Path 3368" d="M390.405,325.6h2.556l-.069.553H390.82l-.345,1.589h1.865l-.069.553h-1.865l-.414,1.8h2.073l-.138.553H389.3Z" transform="translate(-329.68 -292.025)"/>
    <path id="Path_3369" data-name="Path 3369" d="M395.767,329.773l.069.691h0l.345-.691,1.174-2.073h.622l-2.211,3.661h-.276L394.8,327.7h.622Z" transform="translate(-331.38 -292.674)"/>
    <path id="Path_3370" data-name="Path 3370" d="M401.587,330.978a1.336,1.336,0,0,1-.622.345,2.454,2.454,0,0,1-.691.138,1.194,1.194,0,0,1-.9-.345,1.274,1.274,0,0,1-.276-.9,4.18,4.18,0,0,1,.138-1.036,3.748,3.748,0,0,1,.414-.76,1.905,1.905,0,0,1,.622-.484,1.246,1.246,0,0,1,.691-.138,1.176,1.176,0,0,1,.484.069c.138.069.207.138.345.207a.956.956,0,0,1,.207.276.518.518,0,0,1,.069.345.9.9,0,0,1-.484.829,2.857,2.857,0,0,1-1.451.276h-.414a.415.415,0,0,1-.069.276v.207a.844.844,0,0,0,.207.622.718.718,0,0,0,.553.276.744.744,0,0,0,.553-.138,2.3,2.3,0,0,0,.415-.207l.207.138Zm-.622-2.9a.887.887,0,0,0-.691.276,1.576,1.576,0,0,0-.414.829h.553a1.521,1.521,0,0,0,.553-.069l.414-.207c.138-.069.138-.207.138-.345v-.138c0-.069-.069-.069-.069-.138-.069-.069-.069-.069-.138-.069a.38.38,0,0,0-.345-.138Z" transform="translate(-332.71 -292.705)"/>
    <path id="Path_3371" data-name="Path 3371" d="M406.249,328.153h-.276a.845.845,0,0,0-.622.207,1.075,1.075,0,0,0-.414.553l-.484,2.349H403.9l.76-3.592h.345v.622h0c.069-.069.138-.207.207-.276l.207-.207a.359.359,0,0,1,.276-.138.518.518,0,0,1,.345-.069.623.623,0,0,1,.345.069l-.138.484Z" transform="translate(-334.194 -292.643)"/>
    <path id="Path_3372" data-name="Path 3372" d="M408.251,329.918l.069.691h.069l.276-.691,1.174-2.349h.553l-1.727,3.178a3.227,3.227,0,0,0-.345.691,2.8,2.8,0,0,0-.345.622,1.173,1.173,0,0,1-.415.414.507.507,0,0,1-.415.138h-.207c-.069,0-.138,0-.138-.069l.138-.484h.138a.6.6,0,0,0,.414-.207,4.961,4.961,0,0,0,.484-.76l-.622-3.592h.553l.345,2.418Z" transform="translate(-335.09 -292.612)"/>
    <path id="Path_3373" data-name="Path 3373" d="M417.187,329.431a1.522,1.522,0,0,0-.069.553v.76h-.345l-.069-.622h0a.954.954,0,0,0-.207.276c-.069.069-.207.138-.276.207-.138.069-.207.138-.345.138a.623.623,0,0,1-.345.069.673.673,0,0,1-.622-.276,1.567,1.567,0,0,1-.207-.9,4.754,4.754,0,0,1,.138-.9,4.233,4.233,0,0,1,.345-.829,1.783,1.783,0,0,1,.622-.622,1.473,1.473,0,0,1,.829-.207h.415c.069,0,.138,0,.138.069.069,0,.069.069.138.069l.345-1.52h.553l-1.036,3.73Zm-1.589.829a.415.415,0,0,0,.276-.069.954.954,0,0,0,.276-.207c.069-.069.207-.138.276-.276.069-.069.138-.207.207-.276l.415-1.865c-.069-.069-.207-.069-.276-.138h-.415a.919.919,0,0,0-.553.207,3,3,0,0,0-.415.484,2.067,2.067,0,0,0-.276.691,2.834,2.834,0,0,0-.069.76,1,1,0,0,0,.138.484.6.6,0,0,0,.415.207Z" transform="translate(-337.533 -292.056)"/>
    <path id="Path_3374" data-name="Path 3374" d="M422.456,329.78a1.521,1.521,0,0,0-.069.553v.9h-.414l-.069-.622h0a.954.954,0,0,0-.207.276c-.069.069-.207.138-.276.207a.528.528,0,0,1-.345.138.623.623,0,0,1-.345.069c-.553,0-.829-.345-.829-1.105a5.424,5.424,0,0,1,.138-.967,2.306,2.306,0,0,1,.346-.829,1.355,1.355,0,0,1,.622-.622,2,2,0,0,1,.967-.276,1.349,1.349,0,0,1,.484.069,1.625,1.625,0,0,1,.553.138l-.553,2.072Zm-1.658,1.036a.623.623,0,0,0,.345-.069.955.955,0,0,0,.276-.207c.069-.069.207-.138.276-.276a.524.524,0,0,0,.138-.276l.415-1.934a1.347,1.347,0,0,0-.553-.069.784.784,0,0,0-.553.207,3,3,0,0,0-.415.484,2.068,2.068,0,0,0-.276.691,3.1,3.1,0,0,0-.069.76,1,1,0,0,0,.138.484c.069.138.138.207.276.207Z" transform="translate(-339.14 -292.612)"/>
    <path id="Path_3375" data-name="Path 3375" d="M425.751,329.918l.069.691h.069l.276-.691,1.174-2.349h.553l-1.727,3.178a3.228,3.228,0,0,0-.345.691,2.8,2.8,0,0,0-.345.622,1.173,1.173,0,0,1-.415.414.507.507,0,0,1-.414.138h-.207c-.069,0-.138,0-.138-.069l.138-.484h.207a.6.6,0,0,0,.414-.207,4.958,4.958,0,0,0,.484-.76l-.622-3.592h.553l.276,2.418Z" transform="translate(-340.5 -292.612)"/>
    <path id="Path_3376" data-name="Path 3376" d="M433.673,331.231l.414-2a1.027,1.027,0,0,0,.069-.415v-.345c0-.138,0-.207-.069-.276a.359.359,0,0,0-.276-.138.623.623,0,0,0-.345.069c-.138.069-.207.138-.345.207l-.276.276a.955.955,0,0,1-.207.276l-.484,2.28H431.6l.76-3.592h.414l-.069.622h0a.954.954,0,0,1,.276-.207c.069-.069.207-.138.276-.207.138-.069.207-.138.345-.138a.876.876,0,0,1,.415-.069.418.418,0,0,1,.414.207,1.3,1.3,0,0,1,.138.553c.069-.069.138-.207.276-.276a1.5,1.5,0,0,1,.345-.276c.138-.069.207-.138.345-.207a.751.751,0,0,1,.345-.069.805.805,0,0,1,.484.138.68.68,0,0,1,.207.553,5.1,5.1,0,0,1-.138.829l-.484,2.142H435.4l.484-2.142a2.992,2.992,0,0,1,.069-.345V328.4c0-.138,0-.207-.069-.276s-.138-.069-.276-.069a.751.751,0,0,0-.345.069c-.138.069-.207.138-.345.207s-.207.207-.276.276a.954.954,0,0,1-.207.276l-.484,2.28h-.276Z" transform="translate(-342.757 -292.612)"/>
    <path id="Path_3377" data-name="Path 3377" d="M442.556,329.78a1.522,1.522,0,0,0-.069.553v.9h-.415l-.069-.622h0a.954.954,0,0,0-.207.276c-.069.069-.207.138-.276.207a.528.528,0,0,1-.345.138.623.623,0,0,1-.345.069c-.553,0-.829-.345-.829-1.105a5.419,5.419,0,0,1,.138-.967,2.306,2.306,0,0,1,.345-.829,1.355,1.355,0,0,1,.622-.622,2,2,0,0,1,.967-.276,1.348,1.348,0,0,1,.484.069,1.625,1.625,0,0,1,.553.138l-.553,2.072Zm-1.658,1.036a.623.623,0,0,0,.345-.069.955.955,0,0,0,.276-.207c.069-.069.207-.138.276-.276a.524.524,0,0,0,.138-.276l.415-1.934a1.347,1.347,0,0,0-.553-.069.784.784,0,0,0-.553.207,3,3,0,0,0-.415.484,2.069,2.069,0,0,0-.276.691,3.1,3.1,0,0,0-.069.76,1,1,0,0,0,.138.484c0,.138.138.207.276.207Z" transform="translate(-345.354 -292.612)"/>
    <path id="Path_3378" data-name="Path 3378" d="M447.656,329.4a1.521,1.521,0,0,0-.069.553v.76h-.345l-.138-.691h0a.954.954,0,0,0-.207.276c-.069.069-.207.138-.276.207-.138.069-.207.138-.345.138a.623.623,0,0,1-.345.069.673.673,0,0,1-.622-.276,1.567,1.567,0,0,1-.207-.9,4.759,4.759,0,0,1,.138-.9,4.226,4.226,0,0,1,.345-.829,1.783,1.783,0,0,1,.622-.622,1.473,1.473,0,0,1,.829-.207h.415c.069,0,.138,0,.138.069.069,0,.069.069.138.069l.345-1.52h.553l-.967,3.8Zm-1.589.829a.415.415,0,0,0,.276-.069.954.954,0,0,0,.276-.207c.069-.069.207-.138.276-.276.069-.069.138-.207.207-.276l.415-1.865c-.069-.069-.207-.069-.276-.138h-.415a.918.918,0,0,0-.553.207,3,3,0,0,0-.415.484,2.068,2.068,0,0,0-.276.691,2.833,2.833,0,0,0-.069.76,1,1,0,0,0,.138.484.493.493,0,0,0,.415.207Z" transform="translate(-346.931 -292.025)"/>
    <path id="Path_3379" data-name="Path 3379" d="M452.687,330.978a1.336,1.336,0,0,1-.622.345,2.454,2.454,0,0,1-.691.138,1.194,1.194,0,0,1-.9-.345,1.274,1.274,0,0,1-.276-.9,4.182,4.182,0,0,1,.138-1.036,3.748,3.748,0,0,1,.415-.76,1.9,1.9,0,0,1,.622-.484,1.246,1.246,0,0,1,.691-.138,1.177,1.177,0,0,1,.484.069c.138.069.207.138.345.207a.955.955,0,0,1,.207.276.518.518,0,0,1,.069.345.9.9,0,0,1-.484.829,2.857,2.857,0,0,1-1.451.276h-.415a.416.416,0,0,1-.069.276v.207a.844.844,0,0,0,.207.622.718.718,0,0,0,.553.276.744.744,0,0,0,.553-.138,2.3,2.3,0,0,0,.415-.207l.207.138Zm-.622-2.9a.887.887,0,0,0-.691.276,1.576,1.576,0,0,0-.415.829h.553a1.521,1.521,0,0,0,.553-.069l.414-.207c.138-.069.138-.207.138-.345v-.138c0-.069-.069-.069-.069-.138-.069-.069-.069-.069-.138-.069a.447.447,0,0,0-.345-.138Z" transform="translate(-348.508 -292.705)"/>
    <path id="Path_3380" data-name="Path 3380" d="M458.836,325.6h.553l-.415,2.073h0a.954.954,0,0,0,.207-.276c.069-.069.207-.138.276-.207.138-.069.207-.138.345-.138a.876.876,0,0,1,.414-.069.673.673,0,0,1,.622.276,1.241,1.241,0,0,1,.207.76,3.227,3.227,0,0,1-.207,1.174,2.39,2.39,0,0,1-.484.829,2.706,2.706,0,0,1-.691.553,1.575,1.575,0,0,1-.76.207,2.129,2.129,0,0,1-.691-.069,1.125,1.125,0,0,1-.414-.207l1.036-4.9Zm1.174,1.8a.517.517,0,0,0-.345.069,1.508,1.508,0,0,0-.345.207.689.689,0,0,0-.276.345c-.069.138-.138.207-.207.345l-.345,1.658a1.379,1.379,0,0,0,.622.138,1.28,1.28,0,0,0,.484-.138,1.3,1.3,0,0,0,.484-.414,2.161,2.161,0,0,0,.345-.691,3.5,3.5,0,0,0,.138-.9,1.07,1.07,0,0,0-.138-.553c-.207,0-.276-.069-.415-.069Z" transform="translate(-350.857 -292.025)"/>
    <path id="Path_3381" data-name="Path 3381" d="M465.687,330.978a1.336,1.336,0,0,1-.622.345,2.454,2.454,0,0,1-.691.138,1.194,1.194,0,0,1-.9-.345,1.274,1.274,0,0,1-.276-.9,4.179,4.179,0,0,1,.138-1.036,3.744,3.744,0,0,1,.414-.76,1.9,1.9,0,0,1,.622-.484,1.246,1.246,0,0,1,.691-.138,1.177,1.177,0,0,1,.484.069c.138.069.207.138.345.207a.953.953,0,0,1,.207.276.518.518,0,0,1,.069.345.9.9,0,0,1-.484.829,2.857,2.857,0,0,1-1.451.276h-.414a.415.415,0,0,1-.069.276v.207a.845.845,0,0,0,.207.622.718.718,0,0,0,.553.276.744.744,0,0,0,.553-.138,1.125,1.125,0,0,0,.415-.207l.207.138Zm-.622-2.9a.887.887,0,0,0-.691.276,1.576,1.576,0,0,0-.415.829h.553a1.521,1.521,0,0,0,.553-.069l.415-.207c.138-.069.138-.207.138-.345v-.138c0-.069-.069-.069-.069-.138-.069-.069-.069-.069-.138-.069a.38.38,0,0,0-.345-.138Z" transform="translate(-352.526 -292.705)"/>
    <path id="Path_3382" data-name="Path 3382" d="M468.207,327.329h.553l.138-.691.553-.138-.207.9h.967l-.138.484h-.967l-.484,2.142v.276c0,.138,0,.207.069.207a.254.254,0,0,0,.207.069.623.623,0,0,0,.345-.069.524.524,0,0,0,.276-.138v.415a.584.584,0,0,1-.415.138,1.024,1.024,0,0,1-.484.069.55.55,0,0,1-.622-.622.415.415,0,0,1,.069-.276l.484-2.349H468l.207-.415Z" transform="translate(-354.01 -292.303)"/>
    <path id="Path_3383" data-name="Path 3383" d="M471.538,327.329h.553l.138-.691.553-.138-.207.9h.967l-.138.484h-.9l-.484,2.142v.276c0,.138,0,.207.069.207a.254.254,0,0,0,.207.069.623.623,0,0,0,.345-.069.524.524,0,0,0,.276-.138v.415a.584.584,0,0,1-.415.138,1.024,1.024,0,0,1-.484.069.55.55,0,0,1-.622-.622.415.415,0,0,1,.069-.276l.484-2.349H471.4l.138-.415Z" transform="translate(-355.062 -292.303)"/>
    <path id="Path_3384" data-name="Path 3384" d="M477.087,330.978a1.335,1.335,0,0,1-.622.345,2.454,2.454,0,0,1-.691.138,1.194,1.194,0,0,1-.9-.345,1.274,1.274,0,0,1-.276-.9,4.18,4.18,0,0,1,.138-1.036,3.741,3.741,0,0,1,.414-.76,1.9,1.9,0,0,1,.622-.484,1.246,1.246,0,0,1,.691-.138,1.176,1.176,0,0,1,.484.069c.138.069.207.138.345.207a.954.954,0,0,1,.207.276.518.518,0,0,1,.069.345.9.9,0,0,1-.484.829,2.857,2.857,0,0,1-1.451.276h-.414a.415.415,0,0,1-.069.276v.207a.844.844,0,0,0,.207.622.717.717,0,0,0,.553.276.744.744,0,0,0,.553-.138,1.125,1.125,0,0,0,.415-.207l.207.138Zm-.622-2.9a.887.887,0,0,0-.691.276,1.576,1.576,0,0,0-.414.829h.553a1.521,1.521,0,0,0,.553-.069l.414-.207c.138-.069.138-.207.138-.345v-.138c0-.069-.069-.069-.069-.138-.069-.069-.069-.069-.138-.069a.447.447,0,0,0-.345-.138Z" transform="translate(-356.051 -292.705)"/>
    <path id="Path_3385" data-name="Path 3385" d="M481.649,328.153h-.276a.844.844,0,0,0-.622.207,1.075,1.075,0,0,0-.414.553l-.484,2.349H479.3l.76-3.592h.345v.622h0c.069-.069.138-.207.207-.276l.207-.207a.359.359,0,0,1,.276-.138.518.518,0,0,1,.345-.069.623.623,0,0,1,.345.069l-.138.484Z" transform="translate(-357.504 -292.643)"/>
    <path id="Path_3386" data-name="Path 3386" d="M483.2,326.029a.518.518,0,0,1,.069-.345c.069-.069.069-.207.207-.276a.359.359,0,0,1,.276-.138.518.518,0,0,1,.345-.069.623.623,0,0,1,.345.069c.069.069.207.069.276.138a.954.954,0,0,1,.207.276.9.9,0,0,1,0,.691c-.069.069-.069.207-.207.276a.359.359,0,0,1-.276.138.518.518,0,0,1-.345.069.623.623,0,0,1-.345-.069c-.069-.069-.207-.069-.276-.138a.953.953,0,0,1-.207-.276.518.518,0,0,1-.069-.345Zm.207,0c0,.138,0,.207.069.276,0,.069.069.138.138.207s.138.069.207.138c.069,0,.138.069.207.069a.522.522,0,0,0,.276-.069c.069,0,.138-.069.207-.138s.069-.138.138-.207c0-.069.069-.138.069-.276s0-.207-.069-.276c0-.069-.069-.138-.138-.207s-.138-.069-.207-.138c-.069,0-.138-.069-.276-.069a.416.416,0,0,0-.276.069c-.069,0-.138.069-.207.138s-.069.138-.138.207v.276Zm.276-.415h.276a.254.254,0,0,1,.207.069c.069.069.069.069.069.207,0,.069,0,.138-.069.138-.069.069-.069.069-.138.069l.069.069.207.345H484.1l-.207-.345-.138-.069v.345h-.138v-.829Zm.276.138h-.138v.207h.276l.069-.069c0-.138-.069-.138-.207-.138Z" transform="translate(-358.71 -291.901)"/>
  </g>
  <rect id="Rectangle_1074" data-name="Rectangle 1074" width="145.165" height="56" fill="none" opacity="0.486"/>
</svg>
