<svg xmlns="http://www.w3.org/2000/svg" width="121.554" height="35.112" viewBox="0 0 121.554 35.112">
  <g id="Hot_Spring_logo-4c--no_tagline" data-name="Hot Spring logo-4c--no tagline" transform="translate(0 0)">
    <path id="Path_3387" data-name="Path 3387" d="M485.4,295.6a1.7,1.7,0,1,1,1.7-1.7,1.648,1.648,0,0,1-1.7,1.7Zm0-3.269a1.5,1.5,0,1,0,1.5,1.5,1.48,1.48,0,0,0-1.5-1.5Zm-.262,2.158c0,.131.131.131.262.131v.065h-.785v-.065c.131,0,.262-.065.262-.131V293.05c0-.131,0-.131-.2-.131v-.065h.85a.829.829,0,0,1,.392.065.35.35,0,0,1,.262.2.478.478,0,0,1-.131.588.5.5,0,0,1-.327.131l.588.785a.24.24,0,0,0,.2.065v.065h-.458l-.654-.915h-.131v.654Zm0-.785a.829.829,0,0,0,.392-.065.414.414,0,0,0,.327-.392.3.3,0,0,0-.262-.327h-.262c-.065,0-.131,0-.131.131v.654Z" transform="translate(-365.55 -282.262)"/>
    <path id="Path_3388" data-name="Path 3388" d="M306.727,305.508A17.447,17.447,0,0,1,303,294.654a17.662,17.662,0,0,1,30.012-12.619l-2.681,2.681c-16.673-12.946-31.385,5.231-25.565,17.2-4.642-15.954,13.665-24.781,23.277-14.908l-2.615,2.615c-11.638-9.873-24.65,2.877-20.073,13.012-2.615-14.319,12.685-16.869,17.915-10.854-.915,1.112-2.615,2.746-2.615,2.746-7.911-7-18.635,1.242-13.927,10.985Z" transform="translate(-303 -277)" fill="#199eb2"/>
    <path id="Path_3389" data-name="Path 3389" d="M337.385,287.1a17.447,17.447,0,0,1,3.727,10.854A17.662,17.662,0,0,1,311.1,310.573l2.681-2.681c16.673,12.946,31.385-5.231,25.565-17.2,4.642,15.954-13.665,24.781-23.277,14.908l2.615-2.615c11.638,9.873,24.65-2.877,20.073-13.012,2.615,14.319-12.685,16.869-17.915,10.854.915-1.112,2.615-2.746,2.615-2.746,7.912,6.931,18.635-1.242,13.927-10.985Z" transform="translate(-305.804 -280.496)" fill="#004b87"/>
    <path id="Path_3390" data-name="Path 3390" d="M372.3,296.708V290.3h3.2v15.954h-3.2v-7.127h-3.6v7.127h-3.2V290.3h3.2v6.408Z" transform="translate(-324.635 -281.604)"/>
    <path id="Path_3391" data-name="Path 3391" d="M382,302.181c0-3.269.458-6.081,4.642-6.081s4.642,2.812,4.642,6.081c0,3.792-.523,6.408-4.642,6.408-4.054,0-4.642-2.681-4.642-6.408Zm6.146-.2c0-2.485-.131-3.792-1.5-3.792s-1.5,1.242-1.5,3.792c0,3.662.327,4.446,1.5,4.446,1.242,0,1.5-.785,1.5-4.446Z" transform="translate(-330.346 -283.612)"/>
    <path id="Path_3392" data-name="Path 3392" d="M397.5,292.5l3.2-1.5v3.4h1.635v2.092H400.7v6.473c0,.915,0,1.5,1.046,1.5a1.81,1.81,0,0,0,.588-.065V306.5a10.291,10.291,0,0,1-1.635.131c-2.746,0-3.138-1.962-3.138-2.681V292.5Z" transform="translate(-335.712 -281.846)"/>
    <path id="Path_3393" data-name="Path 3393" d="M409.79,306.442c-3.2,0-4.838-2.223-4.512-5.231h3.008c0,1.5.2,2.812,1.962,2.812a2.036,2.036,0,0,0,2.158-1.831c0-3.988-7-1.9-7-7.781,0-2.485,1.177-4.512,5.1-4.512,3.073,0,4.773,1.112,4.708,4.512h-3.073c0-1.177-.523-2.288-1.765-2.288a1.754,1.754,0,0,0-1.765,1.9c0,3.727,7.127,1.5,7.127,7.781-.065,4.119-3.531,4.642-5.95,4.642Z" transform="translate(-338.39 -281.465)"/>
    <path id="Path_3394" data-name="Path 3394" d="M425.242,311.362H422.3V296h2.812v1.242h.065a2.421,2.421,0,0,1,2.485-1.438c3.4,0,3.727,3.6,3.727,5.885s-.131,6.735-3.662,6.735a2.355,2.355,0,0,1-2.485-1.308v4.25Zm3.138-9.35c0-2.223-.327-3.792-1.635-3.792-1.242,0-1.569,1.569-1.569,3.792,0,2.812.588,3.988,1.569,3.988,1.112,0,1.635-1.177,1.635-3.988Z" transform="translate(-344.296 -283.508)"/>
    <path id="Path_3395" data-name="Path 3395" d="M440.073,296.177v1.569h.065a2.953,2.953,0,0,1,3.2-1.765v2.812c-2.811-.2-3.138.85-3.138,2.942v6.538H437v-12.1Z" transform="translate(-349.385 -283.557)"/>
    <path id="Path_3396" data-name="Path 3396" d="M450.942,306.527H448v-12.1h2.942v12.1Zm0-15.627v2.615H448V290.9Z" transform="translate(-353.192 -281.811)"/>
    <path id="Path_3397" data-name="Path 3397" d="M457.073,297.435h0a3.29,3.29,0,0,1,3.138-1.635,2.846,2.846,0,0,1,2.877,2.812v9.677h-3.008v-8.3c0-1.046-.392-1.765-1.373-1.765-1.046,0-1.569.719-1.569,1.765v8.3H454v-12.1h3.073v1.242Z" transform="translate(-355.269 -283.508)"/>
    <path id="Path_3398" data-name="Path 3398" d="M475.177,306.588a3.807,3.807,0,0,1-2.681,1.242c-3.465,0-3.6-3.792-3.6-6.342,0-2.485.392-5.688,3.792-5.688a2.622,2.622,0,0,1,2.485,1.635h.065v-1.308h2.812v11.638c0,.785-.588,3.858-4.642,3.858-1.7,0-4.119-.458-4.185-3.138H472.1a1.223,1.223,0,0,0,1.242,1.177,1.664,1.664,0,0,0,1.7-1.635l.131-1.438Zm-1.569-1.046c1.046,0,1.5-1.112,1.5-3.465,0-2.485-.458-3.923-1.569-3.923s-1.5.85-1.5,4.25c0,1.046.131,3.138,1.569,3.138Z" transform="translate(-360.427 -283.508)"/>
  </g>
</svg>
