<svg xmlns="http://www.w3.org/2000/svg" width="15.672" height="15" viewBox="0 0 15.672 15">
  <path id="star-regular" d="M35.369,5.011l-4.28-.624L29.176.509a.938.938,0,0,0-1.681,0L25.582,4.388l-4.28.624a.938.938,0,0,0-.518,1.6l3.1,3.017-.732,4.262a.937.937,0,0,0,1.359.987l3.829-2.012,3.829,2.012a.938.938,0,0,0,1.359-.987l-.732-4.262,3.1-3.017a.938.938,0,0,0-.518-1.6ZM31.282,9.136l.694,4.054-3.641-1.913L24.694,13.19l.694-4.054L22.442,6.265l4.072-.592,1.822-3.691,1.822,3.691,4.072.592Z" transform="translate(-20.5 0.013)" fill="#ffc107"/>
</svg>
